<svg id="svg" version="1.1" width="400" height="400" viewBox="0 0 400 400" xmlns="http://www.w3.org/2000/svg" xmlns:xlink="http://www.w3.org/1999/xlink" ><g id="svgg"><path id="path0" d="M13.200 54.810 C 14.643 55.042,14.352 55.090,11.731 55.050 C 6.993 54.978,4.493 57.184,4.989 61.000 C 5.141 62.170,5.098 62.385,4.827 61.800 C 4.244 60.542,4.278 337.949,4.861 340.323 C 5.437 342.672,6.456 344.161,7.890 344.752 C 9.216 345.299,390.621 345.614,389.862 345.068 C 389.600 344.879,389.885 344.841,390.518 344.980 C 391.893 345.280,393.632 344.331,394.549 342.778 C 395.603 340.994,395.558 59.284,394.503 57.488 C 393.361 55.543,391.571 54.830,388.256 55.000 C 385.925 55.119,385.731 55.088,387.200 54.833 C 388.190 54.661,304.040 54.520,200.200 54.520 C 96.360 54.520,12.210 54.650,13.200 54.810 M391.985 55.792 C 393.206 56.424,394.801 58.216,394.799 58.954 C 394.798 59.199,394.434 58.805,393.990 58.077 C 393.524 57.313,392.469 56.429,391.492 55.986 C 390.561 55.563,390.034 55.214,390.320 55.209 C 390.606 55.204,391.355 55.466,391.985 55.792 M7.507 56.767 C 6.788 57.409,6.110 57.843,6.000 57.733 C 5.753 57.485,7.899 55.600,8.429 55.600 C 8.640 55.600,8.225 56.125,7.507 56.767 M395.798 200.200 C 395.798 276.100,395.844 307.210,395.900 269.332 C 395.956 231.455,395.956 169.355,395.900 131.332 C 395.844 93.310,395.798 124.300,395.798 200.200 M376.388 70.380 C 377.534 70.601,378.504 71.105,379.088 71.785 L 380.000 72.845 380.000 95.042 C 380.000 114.090,379.914 117.406,379.394 118.412 C 378.704 119.745,374.506 122.701,369.797 125.169 C 368.039 126.091,365.633 127.455,364.452 128.202 C 363.271 128.948,361.237 129.919,359.932 130.360 C 358.628 130.800,356.703 131.790,355.656 132.559 C 354.608 133.328,352.592 134.449,351.175 135.050 C 349.759 135.651,347.784 136.727,346.786 137.442 C 345.788 138.157,343.590 139.371,341.901 140.141 C 340.212 140.911,338.000 142.112,336.984 142.811 C 335.968 143.510,334.042 144.527,332.702 145.071 C 331.363 145.615,329.238 146.759,327.981 147.613 C 326.724 148.467,324.505 149.642,323.050 150.224 C 321.596 150.806,319.658 151.825,318.743 152.487 C 317.829 153.150,315.574 154.384,313.734 155.231 C 311.893 156.077,309.805 157.206,309.093 157.739 C 308.382 158.273,306.373 159.363,304.629 160.161 C 302.884 160.960,300.853 162.075,300.113 162.639 C 299.374 163.203,297.562 164.212,296.086 164.881 C 294.610 165.550,292.624 166.633,291.672 167.288 C 290.720 167.943,288.393 169.194,286.500 170.068 C 284.608 170.943,282.326 172.161,281.430 172.775 C 280.533 173.389,278.419 174.528,276.730 175.306 C 275.042 176.084,272.873 177.262,271.910 177.924 C 270.947 178.587,268.999 179.600,267.580 180.176 C 266.161 180.752,264.042 181.858,262.871 182.635 C 261.700 183.411,259.412 184.653,257.786 185.394 C 256.161 186.134,254.058 187.272,253.114 187.921 C 252.170 188.571,250.195 189.648,248.724 190.315 C 247.253 190.982,245.233 192.089,244.235 192.776 C 243.237 193.462,241.219 194.563,239.750 195.223 C 238.281 195.882,236.251 197.017,235.239 197.746 C 234.228 198.475,232.189 199.629,230.708 200.311 C 229.228 200.992,227.193 202.117,226.188 202.809 C 225.182 203.501,222.613 204.655,220.479 205.374 C 218.346 206.093,215.841 207.068,214.913 207.542 C 209.119 210.499,193.397 210.841,187.031 208.148 C 185.694 207.582,182.671 206.442,180.314 205.616 C 177.957 204.789,174.897 203.378,173.514 202.480 C 172.131 201.582,170.144 200.483,169.097 200.037 C 168.051 199.591,166.161 198.532,164.897 197.683 C 163.634 196.835,161.386 195.579,159.902 194.892 C 158.418 194.206,156.610 193.190,155.883 192.636 C 155.156 192.082,153.130 190.977,151.381 190.181 C 149.631 189.386,147.618 188.293,146.907 187.752 C 146.195 187.212,144.079 186.064,142.203 185.201 C 140.327 184.339,138.020 183.102,137.076 182.452 C 136.132 181.803,134.258 180.824,132.911 180.276 C 131.564 179.729,129.640 178.716,128.635 178.024 C 127.630 177.333,125.265 176.057,123.379 175.190 C 121.493 174.323,119.196 173.074,118.275 172.416 C 117.354 171.757,115.484 170.766,114.120 170.214 C 112.756 169.662,110.416 168.425,108.920 167.466 C 107.424 166.507,105.128 165.238,103.817 164.645 C 102.506 164.053,100.838 163.113,100.109 162.558 C 99.380 162.002,97.420 160.926,95.753 160.166 C 94.086 159.406,91.947 158.251,91.000 157.600 C 90.053 156.949,87.918 155.795,86.254 155.037 C 84.591 154.280,82.455 153.126,81.506 152.473 C 80.558 151.821,78.620 150.798,77.200 150.200 C 75.780 149.602,73.851 148.585,72.913 147.940 C 71.975 147.295,69.633 146.043,67.708 145.158 C 65.783 144.272,63.636 143.112,62.937 142.579 C 62.238 142.046,60.266 140.972,58.553 140.191 C 56.840 139.411,54.837 138.313,54.101 137.751 C 53.365 137.190,51.383 136.093,49.698 135.315 C 48.013 134.536,45.777 133.310,44.730 132.590 C 43.683 131.869,41.516 130.783,39.913 130.176 C 38.311 129.568,35.966 128.374,34.703 127.523 C 33.439 126.671,31.639 125.645,30.703 125.244 C 28.646 124.362,22.464 120.375,21.499 119.309 C 20.199 117.872,20.000 114.615,20.017 95.045 C 20.039 71.432,20.088 71.119,23.869 70.388 C 26.037 69.969,374.215 69.961,376.388 70.380 M26.922 134.822 C 28.505 135.494,30.880 136.743,32.200 137.598 C 33.520 138.453,35.820 139.698,37.310 140.364 C 38.801 141.031,40.840 142.140,41.842 142.829 C 42.843 143.518,44.771 144.532,46.127 145.083 C 47.482 145.634,49.503 146.690,50.618 147.429 C 51.733 148.169,54.017 149.400,55.694 150.164 C 57.371 150.929,59.474 152.083,60.367 152.730 C 61.259 153.377,63.207 154.410,64.695 155.025 C 66.183 155.641,68.300 156.776,69.400 157.547 C 70.500 158.318,72.811 159.536,74.535 160.254 C 76.259 160.971,78.281 162.025,79.028 162.595 C 79.775 163.164,81.921 164.336,83.797 165.199 C 85.673 166.061,87.972 167.292,88.905 167.935 C 89.839 168.577,91.805 169.648,93.276 170.315 C 94.747 170.982,96.782 172.100,97.800 172.800 C 98.818 173.500,100.853 174.618,102.324 175.285 C 103.795 175.952,105.770 177.029,106.714 177.679 C 107.658 178.328,109.791 179.480,111.454 180.237 C 113.118 180.995,115.257 182.151,116.209 182.806 C 117.160 183.461,119.078 184.482,120.469 185.075 C 121.861 185.668,124.014 186.831,125.253 187.659 C 126.491 188.488,128.695 189.642,130.150 190.224 C 131.604 190.806,133.542 191.825,134.457 192.487 C 135.371 193.150,137.666 194.403,139.556 195.272 C 141.446 196.141,143.535 197.266,144.198 197.772 C 144.861 198.277,146.753 199.369,148.402 200.198 C 150.051 201.027,152.179 202.240,153.131 202.893 C 154.083 203.547,155.964 204.529,157.311 205.076 C 158.658 205.624,160.547 206.613,161.509 207.275 C 162.471 207.937,164.730 209.163,166.529 209.999 C 168.328 210.834,170.880 212.174,172.200 212.975 C 173.520 213.777,175.590 214.720,176.800 215.071 C 178.010 215.423,180.980 216.481,183.400 217.424 C 191.476 220.569,206.940 221.061,214.200 218.404 C 215.300 218.001,218.470 216.877,221.244 215.905 C 224.019 214.934,226.899 213.749,227.644 213.272 C 228.390 212.795,230.846 211.512,233.103 210.420 C 235.360 209.329,237.803 207.981,238.533 207.424 C 239.262 206.868,241.137 205.886,242.700 205.241 C 244.263 204.597,246.590 203.360,247.871 202.493 C 249.152 201.626,251.073 200.533,252.140 200.063 C 253.207 199.594,254.946 198.574,256.004 197.797 C 257.063 197.020,259.199 195.860,260.752 195.220 C 262.305 194.580,264.389 193.496,265.383 192.811 C 266.378 192.127,268.768 190.842,270.694 189.957 C 272.620 189.071,274.505 188.067,274.882 187.725 C 275.551 187.120,280.714 184.392,288.400 180.584 C 290.490 179.548,292.960 178.178,293.890 177.538 C 294.819 176.899,296.798 175.829,298.288 175.161 C 299.777 174.492,301.590 173.492,302.317 172.938 C 303.043 172.384,305.024 171.292,306.719 170.511 C 308.413 169.730,310.572 168.562,311.515 167.916 C 312.459 167.269,314.561 166.134,316.186 165.394 C 317.812 164.653,320.100 163.411,321.271 162.635 C 322.442 161.858,324.570 160.749,326.000 160.169 C 327.430 159.590,329.439 158.501,330.465 157.750 C 331.490 156.999,333.599 155.860,335.152 155.220 C 336.705 154.580,338.773 153.507,339.748 152.836 C 340.724 152.165,342.882 150.995,344.546 150.237 C 346.209 149.480,348.341 148.331,349.285 147.684 C 350.228 147.038,352.381 145.872,354.070 145.094 C 355.758 144.316,357.927 143.138,358.890 142.476 C 359.853 141.813,361.791 140.804,363.198 140.232 C 364.604 139.661,366.845 138.485,368.177 137.618 C 373.906 133.894,377.520 132.993,378.960 134.929 L 379.800 136.059 379.902 231.444 C 380.015 335.918,380.173 328.698,377.755 329.617 C 376.382 330.139,24.019 330.140,22.647 329.618 C 19.983 328.605,20.212 337.157,20.094 234.018 C 20.032 179.155,20.139 139.911,20.355 138.346 C 21.045 133.355,22.114 132.781,26.922 134.822 M394.805 341.383 C 394.358 342.738,392.370 344.800,391.510 344.800 C 391.275 344.800,391.693 344.392,392.441 343.894 C 393.399 343.256,393.977 342.433,394.400 341.106 C 394.730 340.071,395.059 339.397,395.132 339.609 C 395.205 339.820,395.058 340.619,394.805 341.383 M8.814 344.400 C 9.100 344.400,9.237 344.497,9.118 344.615 C 8.673 345.061,6.904 343.883,6.190 342.666 C 5.464 341.427,5.479 341.432,6.871 342.900 C 7.654 343.725,8.528 344.400,8.814 344.400 M106.900 345.900 C 158.105 345.956,241.895 345.956,293.100 345.900 C 344.305 345.844,302.410 345.798,200.000 345.798 C 97.590 345.798,55.695 345.844,106.900 345.900 " stroke="none" fill="#4788c7" fill-rule="evenodd"></path><path id="path1" d="M11.700 55.087 C 12.305 55.178,13.295 55.178,13.900 55.087 C 14.505 54.995,14.010 54.920,12.800 54.920 C 11.590 54.920,11.095 54.995,11.700 55.087 M386.500 55.087 C 387.105 55.178,388.095 55.178,388.700 55.087 C 389.305 54.995,388.810 54.920,387.600 54.920 C 386.390 54.920,385.895 54.995,386.500 55.087 M391.492 55.986 C 392.469 56.429,393.524 57.313,393.990 58.077 C 394.434 58.805,394.798 59.199,394.799 58.954 C 394.803 57.738,391.750 55.185,390.320 55.209 C 390.034 55.214,390.561 55.563,391.492 55.986 M6.922 56.566 C 6.305 57.097,5.890 57.622,6.000 57.733 C 6.110 57.843,6.788 57.409,7.507 56.767 C 9.072 55.368,8.530 55.182,6.922 56.566 M395.398 200.200 C 395.398 276.540,395.444 307.710,395.500 269.468 C 395.556 231.225,395.556 168.765,395.500 130.668 C 395.444 92.570,395.398 123.860,395.398 200.200 M23.869 70.388 C 20.088 71.119,20.039 71.432,20.017 95.045 C 20.000 114.615,20.199 117.872,21.499 119.309 C 22.464 120.375,28.646 124.362,30.703 125.244 C 31.639 125.645,33.439 126.671,34.703 127.523 C 35.966 128.374,38.311 129.568,39.913 130.176 C 41.516 130.783,43.683 131.869,44.730 132.590 C 45.777 133.310,48.013 134.536,49.698 135.315 C 51.383 136.093,53.365 137.190,54.101 137.751 C 54.837 138.313,56.840 139.411,58.553 140.191 C 60.266 140.972,62.238 142.046,62.937 142.579 C 63.636 143.112,65.783 144.272,67.708 145.158 C 69.633 146.043,71.975 147.295,72.913 147.940 C 73.851 148.585,75.780 149.602,77.200 150.200 C 78.620 150.798,80.558 151.821,81.506 152.473 C 82.455 153.126,84.591 154.280,86.254 155.037 C 87.918 155.795,90.053 156.949,91.000 157.600 C 91.947 158.251,94.086 159.406,95.753 160.166 C 97.420 160.926,99.380 162.002,100.109 162.558 C 100.838 163.113,102.506 164.053,103.817 164.645 C 105.128 165.238,107.424 166.507,108.920 167.466 C 110.416 168.425,112.756 169.662,114.120 170.214 C 115.484 170.766,117.354 171.757,118.275 172.416 C 119.196 173.074,121.493 174.323,123.379 175.190 C 125.265 176.057,127.630 177.333,128.635 178.024 C 129.640 178.716,131.564 179.729,132.911 180.276 C 134.258 180.824,136.132 181.803,137.076 182.452 C 138.020 183.102,140.327 184.339,142.203 185.201 C 144.079 186.064,146.195 187.212,146.907 187.752 C 147.618 188.293,149.631 189.386,151.381 190.181 C 153.130 190.977,155.156 192.082,155.883 192.636 C 156.610 193.190,158.418 194.206,159.902 194.892 C 161.386 195.579,163.634 196.835,164.897 197.683 C 166.161 198.532,168.051 199.591,169.097 200.037 C 170.144 200.483,172.131 201.582,173.514 202.480 C 174.897 203.378,177.957 204.789,180.314 205.616 C 182.671 206.442,185.694 207.582,187.031 208.148 C 193.397 210.841,209.119 210.499,214.913 207.542 C 215.841 207.068,218.346 206.093,220.479 205.374 C 222.613 204.655,225.182 203.501,226.188 202.809 C 227.193 202.117,229.228 200.992,230.708 200.311 C 232.189 199.629,234.228 198.475,235.239 197.746 C 236.251 197.017,238.281 195.882,239.750 195.223 C 241.219 194.563,243.237 193.462,244.235 192.776 C 245.233 192.089,247.253 190.982,248.724 190.315 C 250.195 189.648,252.170 188.571,253.114 187.921 C 254.058 187.272,256.161 186.134,257.786 185.394 C 259.412 184.653,261.700 183.411,262.871 182.635 C 264.042 181.858,266.161 180.752,267.580 180.176 C 268.999 179.600,270.947 178.587,271.910 177.924 C 272.873 177.262,275.042 176.084,276.730 175.306 C 278.419 174.528,280.533 173.389,281.430 172.775 C 282.326 172.161,284.608 170.943,286.500 170.068 C 288.393 169.194,290.720 167.943,291.672 167.288 C 292.624 166.633,294.610 165.550,296.086 164.881 C 297.562 164.212,299.374 163.203,300.113 162.639 C 300.853 162.075,302.884 160.960,304.629 160.161 C 306.373 159.363,308.382 158.273,309.093 157.739 C 309.805 157.206,311.893 156.077,313.734 155.231 C 315.574 154.384,317.829 153.150,318.743 152.487 C 319.658 151.825,321.596 150.806,323.050 150.224 C 324.505 149.642,326.724 148.467,327.981 147.613 C 329.238 146.759,331.363 145.615,332.702 145.071 C 334.042 144.527,335.968 143.510,336.984 142.811 C 338.000 142.112,340.212 140.911,341.901 140.141 C 343.590 139.371,345.788 138.157,346.786 137.442 C 347.784 136.727,349.759 135.651,351.175 135.050 C 352.592 134.449,354.608 133.328,355.656 132.559 C 356.703 131.790,358.628 130.800,359.932 130.360 C 361.237 129.919,363.271 128.948,364.452 128.202 C 365.633 127.455,368.039 126.091,369.797 125.169 C 374.506 122.701,378.704 119.745,379.394 118.412 C 379.914 117.406,380.000 114.090,380.000 95.042 L 380.000 72.845 379.088 71.785 C 378.504 71.105,377.534 70.601,376.388 70.380 C 374.215 69.961,26.037 69.969,23.869 70.388 M21.407 134.646 C 20.042 136.729,19.988 140.821,20.094 234.018 C 20.212 337.157,19.983 328.605,22.647 329.618 C 24.019 330.140,376.382 330.139,377.755 329.617 C 380.173 328.698,380.015 335.918,379.902 231.444 L 379.800 136.059 378.960 134.929 C 377.520 132.993,373.906 133.894,368.177 137.618 C 366.845 138.485,364.604 139.661,363.198 140.232 C 361.791 140.804,359.853 141.813,358.890 142.476 C 357.927 143.138,355.758 144.316,354.070 145.094 C 352.381 145.872,350.228 147.038,349.285 147.684 C 348.341 148.331,346.209 149.480,344.546 150.237 C 342.882 150.995,340.724 152.165,339.748 152.836 C 338.773 153.507,336.705 154.580,335.152 155.220 C 333.599 155.860,331.490 156.999,330.465 157.750 C 329.439 158.501,327.430 159.590,326.000 160.169 C 324.570 160.749,322.442 161.858,321.271 162.635 C 320.100 163.411,317.812 164.653,316.186 165.394 C 314.561 166.134,312.459 167.269,311.515 167.916 C 310.572 168.562,308.413 169.730,306.719 170.511 C 305.024 171.292,303.043 172.384,302.317 172.938 C 301.590 173.492,299.777 174.492,298.288 175.161 C 296.798 175.829,294.819 176.899,293.890 177.538 C 292.960 178.178,290.490 179.548,288.400 180.584 C 280.714 184.392,275.551 187.120,274.882 187.725 C 274.505 188.067,272.620 189.071,270.694 189.957 C 268.768 190.842,266.378 192.127,265.383 192.811 C 264.389 193.496,262.305 194.580,260.752 195.220 C 259.199 195.860,257.063 197.020,256.004 197.797 C 254.946 198.574,253.207 199.594,252.140 200.063 C 251.073 200.533,249.152 201.626,247.871 202.493 C 246.590 203.360,244.263 204.597,242.700 205.241 C 241.137 205.886,239.262 206.868,238.533 207.424 C 237.803 207.981,235.360 209.329,233.103 210.420 C 230.846 211.512,228.390 212.795,227.644 213.272 C 226.899 213.749,224.019 214.934,221.244 215.905 C 218.470 216.877,215.300 218.001,214.200 218.404 C 206.940 221.061,191.476 220.569,183.400 217.424 C 180.980 216.481,178.010 215.423,176.800 215.071 C 175.590 214.720,173.520 213.777,172.200 212.975 C 170.880 212.174,168.328 210.834,166.529 209.999 C 164.730 209.163,162.471 207.937,161.509 207.275 C 160.547 206.613,158.658 205.624,157.311 205.076 C 155.964 204.529,154.083 203.547,153.131 202.893 C 152.179 202.240,150.051 201.027,148.402 200.198 C 146.753 199.369,144.861 198.277,144.198 197.772 C 143.535 197.266,141.446 196.141,139.556 195.272 C 137.666 194.403,135.371 193.150,134.457 192.487 C 133.542 191.825,131.604 190.806,130.150 190.224 C 128.695 189.642,126.491 188.488,125.253 187.659 C 124.014 186.831,121.861 185.668,120.469 185.075 C 119.078 184.482,117.160 183.461,116.209 182.806 C 115.257 182.151,113.118 180.995,111.454 180.237 C 109.791 179.480,107.658 178.328,106.714 177.679 C 105.770 177.029,103.795 175.952,102.324 175.285 C 100.853 174.618,98.818 173.500,97.800 172.800 C 96.782 172.100,94.747 170.982,93.276 170.315 C 91.805 169.648,89.839 168.577,88.905 167.935 C 87.972 167.292,85.673 166.061,83.797 165.199 C 81.921 164.336,79.775 163.164,79.028 162.595 C 78.281 162.025,76.259 160.971,74.535 160.254 C 72.811 159.536,70.500 158.318,69.400 157.547 C 68.300 156.776,66.183 155.641,64.695 155.025 C 63.207 154.410,61.259 153.377,60.367 152.730 C 59.474 152.083,57.371 150.929,55.694 150.164 C 54.017 149.400,51.733 148.169,50.618 147.429 C 49.503 146.690,47.482 145.634,46.127 145.083 C 44.771 144.532,42.843 143.518,41.842 142.829 C 40.840 142.140,38.801 141.031,37.310 140.364 C 35.820 139.698,33.520 138.453,32.200 137.598 C 26.673 134.018,22.556 132.892,21.407 134.646 M394.400 341.106 C 393.977 342.433,393.399 343.256,392.441 343.894 C 391.693 344.392,391.275 344.800,391.510 344.800 C 392.902 344.800,395.592 340.945,395.132 339.609 C 395.059 339.397,394.730 340.071,394.400 341.106 M6.190 342.666 C 6.904 343.883,8.673 345.061,9.118 344.615 C 9.237 344.497,9.100 344.400,8.814 344.400 C 8.528 344.400,7.654 343.725,6.871 342.900 C 5.479 341.432,5.464 341.427,6.190 342.666 M106.133 345.500 C 158.016 345.556,242.796 345.556,294.533 345.500 C 346.270 345.444,303.820 345.398,200.200 345.398 C 96.580 345.398,54.250 345.444,106.133 345.500 " stroke="none" fill="#dff0fe" fill-rule="evenodd"></path></g></svg>