<svg id="svg" version="1.1" width="400" height="400" viewBox="0 0 400 400" xmlns="http://www.w3.org/2000/svg" xmlns:xlink="http://www.w3.org/1999/xlink" ><g id="svgg"><path id="path0" d="M99.400 90.746 C 97.159 91.009,95.531 91.694,92.600 93.605 C 91.940 94.036,91.040 94.565,90.600 94.782 C 88.589 95.770,86.624 97.546,85.784 99.132 C 85.279 100.084,84.581 101.179,84.233 101.563 C 83.885 101.948,83.600 102.452,83.600 102.683 C 83.600 102.913,83.339 103.319,83.020 103.583 C 79.688 106.349,79.491 123.755,82.769 125.781 C 82.978 125.910,83.431 126.552,83.775 127.208 C 84.119 127.864,84.701 128.976,85.069 129.679 C 85.885 131.241,88.867 134.278,90.099 134.803 C 91.333 135.328,95.866 138.208,96.400 138.806 C 98.339 140.978,113.561 139.953,116.069 137.482 C 116.361 137.194,118.014 136.158,119.742 135.179 C 123.070 133.295,123.575 132.764,125.633 128.984 C 126.347 127.673,127.041 126.510,127.175 126.400 C 130.381 123.766,130.956 109.821,128.039 105.440 C 126.819 103.608,126.779 103.539,125.570 101.200 C 123.886 97.941,121.798 95.933,118.076 93.993 C 117.152 93.511,116.295 92.953,116.171 92.753 C 115.094 91.011,106.213 89.948,99.400 90.746 M81.200 161.200 C 80.405 161.995,80.400 162.530,80.405 239.700 C 80.411 317.733,80.430 319.200,81.447 319.200 C 81.751 319.200,82.000 319.380,82.000 319.600 C 82.000 319.862,89.915 320.000,104.945 320.000 L 127.891 320.000 128.945 318.945 L 130.000 317.891 130.000 239.945 C 130.000 188.248,129.865 162.000,129.600 162.000 C 129.380 162.000,129.200 161.751,129.200 161.447 C 129.200 160.471,127.789 160.411,104.700 160.405 C 82.530 160.400,81.981 160.419,81.200 161.200 M161.200 161.200 C 160.405 161.995,160.400 162.530,160.405 239.700 C 160.411 317.733,160.430 319.200,161.447 319.200 C 161.751 319.200,162.000 319.380,162.000 319.600 C 162.000 319.862,169.915 320.000,184.945 320.000 L 207.891 320.000 208.945 318.945 L 210.000 317.891 210.000 275.225 C 210.000 225.283,210.265 219.806,212.770 218.000 C 213.239 217.662,215.200 213.932,215.200 213.378 C 215.200 211.528,225.204 203.600,227.539 203.600 C 227.792 203.600,228.000 203.449,228.000 203.264 C 228.000 203.079,228.945 202.404,230.100 201.765 L 232.200 200.603 240.031 200.602 C 248.287 200.600,249.239 200.780,251.800 202.833 C 252.240 203.185,253.833 203.987,255.340 204.614 C 256.930 205.276,258.609 206.327,259.340 207.119 C 260.033 207.870,261.140 209.006,261.800 209.645 C 262.460 210.284,263.411 211.210,263.914 211.703 C 264.417 212.196,264.942 213.047,265.081 213.594 C 265.220 214.141,265.838 215.401,266.453 216.394 C 270.381 222.730,270.107 218.784,270.262 271.200 C 270.401 317.942,270.431 319.200,271.418 319.200 C 271.738 319.200,272.000 319.380,272.000 319.600 C 272.000 319.862,279.915 320.000,294.945 320.000 L 317.891 320.000 318.945 318.945 L 320.000 317.891 320.000 272.344 C 320.000 216.799,319.847 213.255,317.205 207.400 C 316.405 205.628,315.191 200.717,315.197 199.275 C 315.200 198.295,313.392 194.166,312.798 193.799 C 312.453 193.586,311.872 192.427,309.867 187.953 C 309.313 186.717,308.417 185.357,307.875 184.930 C 307.333 184.504,306.214 183.085,305.388 181.778 C 303.585 178.923,301.620 176.797,299.222 175.107 C 298.245 174.419,296.829 173.221,296.077 172.446 C 295.325 171.672,294.325 170.833,293.855 170.582 C 291.148 169.136,289.689 168.224,288.800 167.420 C 287.697 166.422,284.783 165.237,280.800 164.168 C 279.370 163.784,277.570 163.148,276.800 162.754 C 273.008 160.815,272.051 160.701,259.400 160.686 C 247.019 160.671,243.998 161.011,242.000 162.642 C 241.339 163.181,236.747 164.800,235.879 164.800 C 234.654 164.800,230.150 166.539,229.112 167.413 C 227.835 168.487,223.429 170.800,222.660 170.800 C 222.375 170.800,221.436 171.622,220.572 172.627 C 219.707 173.631,218.460 174.690,217.800 174.980 C 216.562 175.523,215.585 176.382,214.200 178.145 C 211.654 181.386,210.091 177.321,210.032 167.300 C 210.012 164.054,209.845 162.000,209.600 162.000 C 209.380 162.000,209.200 161.751,209.200 161.447 C 209.200 160.471,207.789 160.411,184.700 160.405 C 162.530 160.400,161.981 160.419,161.200 161.200 " stroke="none" fill="#ffffff" fill-rule="evenodd"></path><path id="path1" d="M18.100 200.100 L 18.200 382.200 200.200 382.200 L 382.200 382.200 382.200 200.200 L 382.200 18.200 200.100 18.100 L 17.999 17.999 18.100 200.100 M369.370 31.400 C 369.907 32.111,369.976 50.935,369.987 200.118 L 370.000 368.036 369.018 369.018 L 368.036 370.000 200.118 369.987 C 50.935 369.976,32.111 369.907,31.400 369.370 C 30.132 368.412,29.933 32.467,31.200 31.200 C 32.467 29.933,368.412 30.132,369.370 31.400 " stroke="none" fill="#4788c7" fill-rule="evenodd"></path><path id="path2" d="M31.200 31.200 C 29.933 32.467,30.132 368.412,31.400 369.370 C 32.111 369.907,50.935 369.976,200.118 369.987 L 368.036 370.000 369.018 369.018 L 370.000 368.036 369.987 200.118 C 369.976 50.935,369.907 32.111,369.370 31.400 C 368.412 30.132,32.467 29.933,31.200 31.200 M114.403 91.601 C 115.251 92.034,116.047 92.552,116.171 92.753 C 116.295 92.953,117.152 93.511,118.076 93.993 C 121.798 95.933,123.886 97.941,125.570 101.200 C 126.779 103.539,126.819 103.608,128.039 105.440 C 130.956 109.821,130.381 123.766,127.175 126.400 C 127.041 126.510,126.347 127.673,125.633 128.984 C 123.575 132.764,123.070 133.295,119.742 135.179 C 118.014 136.158,116.361 137.194,116.069 137.482 C 113.561 139.953,98.339 140.978,96.400 138.806 C 95.866 138.208,91.333 135.328,90.099 134.803 C 88.867 134.278,85.885 131.241,85.069 129.679 C 84.701 128.976,84.119 127.864,83.775 127.208 C 83.431 126.552,82.978 125.910,82.769 125.781 C 79.491 123.755,79.688 106.349,83.020 103.583 C 83.339 103.319,83.600 102.913,83.600 102.683 C 83.600 102.452,83.885 101.948,84.233 101.563 C 84.581 101.179,85.279 100.084,85.784 99.132 C 86.624 97.546,88.589 95.770,90.600 94.782 C 91.040 94.565,91.940 94.036,92.600 93.605 C 97.040 90.709,98.732 90.368,107.330 90.640 C 111.802 90.781,113.155 90.965,114.403 91.601 M128.300 160.652 C 128.795 160.785,129.200 161.142,129.200 161.447 C 129.200 161.751,129.380 162.000,129.600 162.000 C 129.865 162.000,130.000 188.248,130.000 239.945 L 130.000 317.891 128.945 318.945 L 127.891 320.000 104.945 320.000 C 89.915 320.000,82.000 319.862,82.000 319.600 C 82.000 319.380,81.751 319.200,81.447 319.200 C 80.430 319.200,80.411 317.733,80.405 239.700 C 80.400 162.530,80.405 161.995,81.200 161.200 C 81.999 160.401,125.477 159.896,128.300 160.652 M208.300 160.652 C 208.795 160.785,209.200 161.142,209.200 161.447 C 209.200 161.751,209.380 162.000,209.600 162.000 C 209.845 162.000,210.012 164.054,210.032 167.300 C 210.091 177.321,211.654 181.386,214.200 178.145 C 215.585 176.382,216.562 175.523,217.800 174.980 C 218.460 174.690,219.707 173.631,220.572 172.627 C 221.436 171.622,222.375 170.800,222.660 170.800 C 223.429 170.800,227.835 168.487,229.112 167.413 C 230.150 166.539,234.654 164.800,235.879 164.800 C 236.747 164.800,241.339 163.181,242.000 162.642 C 243.998 161.011,247.019 160.671,259.400 160.686 C 272.051 160.701,273.008 160.815,276.800 162.754 C 277.570 163.148,279.370 163.784,280.800 164.168 C 284.783 165.237,287.697 166.422,288.800 167.420 C 289.689 168.224,291.148 169.136,293.855 170.582 C 294.325 170.833,295.325 171.672,296.077 172.446 C 296.829 173.221,298.245 174.419,299.222 175.107 C 301.620 176.797,303.585 178.923,305.388 181.778 C 306.214 183.085,307.333 184.504,307.875 184.930 C 308.417 185.357,309.313 186.717,309.867 187.953 C 311.872 192.427,312.453 193.586,312.798 193.799 C 313.392 194.166,315.200 198.295,315.197 199.275 C 315.191 200.717,316.405 205.628,317.205 207.400 C 319.847 213.255,320.000 216.799,320.000 272.344 L 320.000 317.891 318.945 318.945 L 317.891 320.000 294.945 320.000 C 279.915 320.000,272.000 319.862,272.000 319.600 C 272.000 319.380,271.738 319.200,271.418 319.200 C 270.431 319.200,270.401 317.942,270.262 271.200 C 270.107 218.784,270.381 222.730,266.453 216.394 C 265.838 215.401,265.220 214.141,265.081 213.594 C 264.942 213.047,264.417 212.196,263.914 211.703 C 263.411 211.210,262.460 210.284,261.800 209.645 C 261.140 209.006,260.033 207.870,259.340 207.119 C 258.609 206.327,256.930 205.276,255.340 204.614 C 253.833 203.987,252.240 203.185,251.800 202.833 C 249.239 200.780,248.287 200.600,240.031 200.602 L 232.200 200.603 230.100 201.765 C 228.945 202.404,228.000 203.079,228.000 203.264 C 228.000 203.449,227.792 203.600,227.539 203.600 C 225.204 203.600,215.200 211.528,215.200 213.378 C 215.200 213.932,213.239 217.662,212.770 218.000 C 210.265 219.806,210.000 225.283,210.000 275.225 L 210.000 317.891 208.945 318.945 L 207.891 320.000 184.945 320.000 C 169.915 320.000,162.000 319.862,162.000 319.600 C 162.000 319.380,161.751 319.200,161.447 319.200 C 160.430 319.200,160.411 317.733,160.405 239.700 C 160.400 162.530,160.405 161.995,161.200 161.200 C 161.999 160.401,205.477 159.896,208.300 160.652 " stroke="none" fill="#98ccfd" fill-rule="evenodd"></path><path id="path3" d="" stroke="none" fill="#00ffff" fill-rule="evenodd"></path></g></svg>